HIERARCHY
ROOT Hips
{
  OFFSET 273.282 99.7894 9.62676
  CHANNELS 6 Xposition Yposition Zposition Zrotation Xrotation Yrotation
  JOINT Spine
  {
    OFFSET -0.000355721 21.3001 -0.016921
    CHANNELS 3 Zrotation Xrotation Yrotation
    JOINT LeftArm
    {
      OFFSET 13.5181 21.3012 0
      CHANNELS 3 Zrotation Xrotation Yrotation
      JOINT LeftForeArm
      {
        OFFSET 24.5783 0 0
        CHANNELS 3 Zrotation Xrotation Yrotation
        JOINT LeftHand
        {
          OFFSET 24.5783 0 0
          CHANNELS 3 Zrotation Xrotation Yrotation
          End Site
          {
            OFFSET 7.32568 1.52588e-05 0.0169305
          }
        }
      }
    }
    JOINT Head
    {
      OFFSET 0 27.4458 -0.00489235
      CHANNELS 3 Zrotation Xrotation Yrotation
      End Site
      {
        OFFSET 0 0 0
      }
    }
    JOINT RightArm
    {
      OFFSET -13.5174 21.3012 0
      CHANNELS 3 Zrotation Xrotation Yrotation
      JOINT RightForeArm
      {
        OFFSET -24.5783 0 0
        CHANNELS 3 Zrotation Xrotation Yrotation
        JOINT RightHand
        {
          OFFSET -24.5783 0 0
          CHANNELS 3 Zrotation Xrotation Yrotation
          End Site
          {
            OFFSET -7.32568 1.52588e-05 0.0169305
          }
        }
      }
    }
  }
  JOINT RightUpLeg
  {
    OFFSET -8.44614 -9.41038 0.835684
    CHANNELS 3 Zrotation Xrotation Yrotation
    JOINT RightLeg
    {
      OFFSET 0 -40.9639 0
      CHANNELS 3 Zrotation Xrotation Yrotation
      JOINT RightFoot
      {
        OFFSET 0 -40.9639 0
        CHANNELS 3 Zrotation Xrotation Yrotation
        End Site
        {
          OFFSET 0.50614 -9.67405 14.6709
        }
      }
    }
  }
  JOINT LeftUpLeg
  {
    OFFSET 8.44614 -9.41038 0.835684
    CHANNELS 3 Zrotation Xrotation Yrotation
    JOINT LeftLeg
    {
      OFFSET 0 -40.9639 0
      CHANNELS 3 Zrotation Xrotation Yrotation
      JOINT LeftFoot
      {
        OFFSET 0 -40.9639 0
        CHANNELS 3 Zrotation Xrotation Yrotation
        End Site
        {
          OFFSET -0.50614 -9.67405 14.6709
        }
      }
    }
  }
}
MOTION
Frames:	27
Frame Time:	0.0333333
273.282 99.7894 9.62676 3.48359 -7.299 167.112 0.261406 -3.99449 0.230779 -75.1264 36.11 -1.63178 -3.28302e-05 -0.000710007 -66.1126 -9.83681 -1.50883 -0.24412 -5.22047 8.84305 14.6295 78.0048 14.8801 -33.2254 -8.55338e-05 -0.00102611 56.4601 2.41117 -29.7192 8.35443 0.634183 -22.7818 -0.0367551 -5.47193e-05 37.8513 -0.0369637 -5.81246 -24.2696 -2.95854 -0.910358 3.09324 -1.63654 0.00112548 28.6672 -0.00998029 -0.0983729 -3.38655 -10.9988 
275.025 100.395 4.62449 4.36878 -7.16507 168.429 0.494839 -4.27501 -0.0548503 -74.98 39.4361 -2.45407 -9.71347e-05 -0.000542026 -71.9928 -11.4692 -3.01615 -0.657742 -4.0726 8.74118 14.4992 78.1922 13.9538 -36.7531 -6.64444e-05 -0.00099671 57.5415 2.48616 -29.2507 7.59074 2.28091 -21.0624 -0.672329 7.90586e-05 27.2335 -0.0122991 -1.50312 -24.6372 0.503557 1.40273 4.09925 -1.62455 -8.81826e-05 31.0379 0.0101635 -6.54801 2.1558 -12.3228 
276.844 99.8554 -0.376498 4.92992 -6.7981 169.753 0.524306 -4.47113 -0.00835294 -74.8642 41.856 -2.77063 -0.000138058 -0.000394513 -76.9969 -13.4846 -4.501 -2.12309 -3.07965 8.14861 13.7902 78.2663 14.1614 -38.9737 -4.87861e-05 -0.000968389 58.5712 1.86493 -29.5956 6.43139 3.64178 -19.9193 -0.911113 5.48186e-06 21.7867 -0.0203485 -2.10891 -26.0854 -1.54316 3.20353 3.39258 -2.4412 -4.75718e-05 37.5153 0.0458832 -13.402 4.51413 -12.0538 
278.62 98.2004 -5.38941 5.20745 -6.13979 170.77 0.531341 -4.311 0.193573 -74.7251 43.0897 -2.49717 -0.000163037 -0.000263947 -81.3419 -14.4695 -5.74529 -2.36566 -2.69037 7.18255 13.1374 78.0717 15.0927 -38.9758 -4.04419e-05 -0.0009546 59.0684 1.33557 -29.2254 5.77176 3.75113 -19.5842 -3.51397 2.37158e-05 21.9456 0.0639563 6.25813 -23.9508 0.617201 4.3537 1.5595 -2.48304 9.36369e-06 46.9237 0.0555104 -14.6249 2.46757 -10.6032 
280.27 95.6877 -10.3369 5.30587 -5.6652 171.278 0.568701 -3.92193 0.601329 -74.9682 41.7946 -1.21254 -0.000174891 -0.000168621 -84.4813 -15.8279 -5.253 -1.67993 -3.27653 5.73426 13.356 77.7564 16.6953 -36.7216 -2.61224e-05 -0.000930287 59.9389 0.408671 -29.4359 5.12109 3.98408 -22.4857 -3.96538 9.44428e-06 34.9436 0.00525936 0.339215 -26.5465 2.3608 5.31368 -1.32949 -1.38249 -4.27813e-06 57.693 0.0475338 -12.541 -3.44227 -5.65276 
281.642 93.2504 -14.9242 6.45158 -5.11009 171.137 1.07277 -3.15607 1.28785 -76.0055 37.773 2.26828 -0.000175169 -0.000165721 -84.5765 -15.5162 -2.7366 -0.45066 -3.64796 4.2595 14.6467 78.2772 20.6069 -31.5176 -3.85557e-05 -0.000951446 59.1818 -0.77466 -28.4002 5.41818 5.1696 -23.754 -5.27501 -2.62764e-06 45.2096 -0.0253467 -3.4396 -32.6076 1.73498 7.28357 -4.90378 0.385037 1.71219e-05 67.9277 0.0205079 -5.62693 -10.1083 -1.28959 
282.726 91.6575 -19.4273 6.71554 -5.29215 171.581 1.29221 -2.67344 1.47308 -77.0844 33.0164 6.77312 -0.000168555 -0.00022474 -82.6358 -11.4311 2.99477 2.49067 -3.61953 2.86394 15.4126 77.8809 26.8397 -23.8253 -3.82794e-05 -0.000950982 59.1984 1.65157 -30.5663 6.72402 5.96582 -22.0679 -4.6881 2.44418e-07 48.7234 -0.0202964 -3.06896 -38.0641 0.0890764 7.648 -10.2772 1.00923 -2.67072e-05 75.5113 -0.0049073 1.39374 -14.9862 2.90638 
283.623 91.3682 -23.9968 7.56213 -5.56636 173.077 1.69902 -2.69158 1.82976 -76.3904 28.2362 10.797 -0.000156743 -0.000302404 -80.0685 -15.1749 11.714 8.56207 -3.47448 3.09023 15.3247 76.8215 31.8748 -14.9185 -1.87239e-05 -0.000917385 60.3978 -1.17365 -23.3009 3.83669 7.35694 -18.7973 -4.55598 -0.00376639 48.5956 -0.0271632 -5.00144 -39.7423 -2.69741 8.23724 -16.1678 0.931428 0.000110192 79.1102 -0.0131043 7.82371 -17.9575 3.89745 
284.732 92.3967 -29.7884 7.41649 -6.65175 168.942 1.35893 -5.21278 5.30009 -74.9093 22.0204 17.2202 -0.000145813 -0.000359282 -78.1757 -21.6634 14.3641 12.1894 -2.93983 5.72759 17.8221 76.9371 37.5567 -8.81078 4.14304e-05 -0.000802315 64.4045 -1.18082 -19.5097 3.60149 9.40996 -13.3154 1.36861 -5.70616e-05 43.8092 -0.0299218 -5.26809 -38.2239 -4.30908 9.70744 -18.3467 6.79394 0.000435286 75.4301 -0.0134221 10.2127 -22.2826 2.62927 
285.011 94.3234 -34.7079 7.35631 -7.04028 170.565 1.33852 -5.37559 6.40759 -72.537 19.5631 20.7929 -0.000133367 -0.000414303 -76.3322 -24.2398 12.002 10.1139 -2.809 6.19134 16.8446 75.9066 38.8286 -3.53278 0.000107934 -0.000645377 69.6649 -2.64983 -20.8962 3.12473 8.96897 -7.91025 1.43768 1.26748e-05 37.8271 -0.0168842 -4.03927 -33.0168 -4.69904 8.13435 -22.033 5.5748 0.00116921 69.5592 -0.011286 5.74943 -27.2752 1.24132 
284.866 96.6308 -39.6444 7.022 -6.95411 173.993 1.24757 -5.19092 6.40484 -71.1305 18.6828 24.3926 -0.000129615 -0.000429439 -75.8227 -21.7632 9.42561 8.56578 -3.23709 6.83422 15.2748 74.2417 39.1567 0.576577 0.000156822 -0.000493817 74.5795 -1.9997 -21.9067 3.10854 7.07573 -3.27663 -2.29061 1.22218e-05 33.0145 -0.00494592 -2.68191 -24.2401 -1.9794 4.39258 -23.8393 1.89455 -0.000204518 59.356 -0.00627336 5.02761 -28.5096 0.784924 
284.641 98.6648 -44.8836 6.56311 -7.48953 176.941 0.889917 -5.55709 6.54837 -69.7652 17.6597 27.0997 -0.00012213 -0.000458051 -74.8562 -19.7476 8.25282 6.74773 -3.54005 7.4512 14.0468 72.7313 39.0718 3.8704 0.000193398 -0.000333999 79.6393 -0.43807 -22.5478 -2.92742 5.10058 -0.0983987 -5.39173 3.09785e-05 29.6145 0.0114514 1.96246 -15.5197 1.71403 1.11666 -24.2064 -0.203988 -0.000239074 46.4117 0.00070897 4.03656 -28.4272 -0.332483 
284.299 99.9416 -50.0025 5.92745 -7.83042 179.576 0.486825 -5.66795 6.44208 -68.7771 16.5311 29.0581 -0.000121019 -0.000462134 -74.7179 -18.741 7.84769 6.87611 -4.21962 7.44595 13.219 70.7114 38.9832 6.58746 0.000214538 -0.00018403 84.3131 -1.40028 -23.4899 -9.15676 2.88177 1.52195 -7.13057 0.000191117 29.4636 0.0157348 5.64486 -6.68541 5.13297 -2.02098 -23.2018 -0.818037 -9.78186e-05 32.5002 0.0114938 3.39617 -26.9973 -1.04548 
283.907 100.175 -55.0809 5.64593 -7.88159 -178.279 0.320915 -6.15566 6.47769 -68.1929 15.8574 31.1243 -0.000124692 -0.000448475 -75.1801 -16.7492 8.01735 6.56086 -4.98262 6.77649 12.789 70.9242 38.7579 6.14856 0.000221713 -8.54236e-05 87.3636 -1.76382 -23.6457 -8.74133 0.554417 1.61592 -7.58459 0.000747355 32.9731 -0.00762131 14.3802 1.24388 7.74131 -4.42316 -22.1995 0.684769 5.54465e-05 22.5539 0.0276279 4.03805 -25.3379 0.0561139 
283.535 99.2032 -60.1636 6.07574 -7.42436 -176.002 0.337107 -6.09542 6.11146 -67.5735 15.8489 32.1755 -0.000128505 -0.000433809 -75.6753 -13.6989 8.76043 5.99909 -5.46624 5.41699 12.6646 72.2048 38.0877 4.79469 0.000223023 -4.93402e-05 88.4776 -0.952642 -22.6637 -6.21723 -0.935188 0.893438 -7.0957 -0.00137215 38.983 -0.0513928 21.7064 7.23423 8.76541 -5.75923 -22.3627 3.24605 2.72265e-05 20.4016 0.0388662 4.16919 -25.0957 0.314179 
283.238 97.1638 -65.247 6.63553 -6.37457 -173.846 0.214419 -5.62874 5.59417 -67.1338 16.5612 31.8632 -0.000132471 -0.00041797 -76.2089 -12.4088 9.42892 5.94419 -5.46851 4.4481 12.7721 73.8454 37.2577 2.91898 0.000221511 -8.97121e-05 87.2312 -0.0794699 -21.3337 -4.03684 -2.28667 -0.211536 -6.64987 0.000443997 47.093 -0.0737849 24.0989 8.50896 8.59083 -6.26312 -22.7087 3.20198 2.60186e-05 23.7481 0.0241618 2.67783 -23.8585 -1.67603 
282.827 94.1422 -70.3148 6.77793 -5.87394 -171.888 -0.0529052 -5.27142 5.10887 -67.4508 18.2396 29.9038 -0.000139348 -0.000388883 -77.1856 -12.0906 11.6768 6.59246 -5.20503 2.84072 12.4582 74.4919 36.2067 1.2817 0.000212356 -0.000204761 83.67 -0.331671 -20.9077 -2.97879 -4.93932 -2.7365 -7.19709 -3.21198e-06 57.208 -0.0567996 22.7192 2.75654 7.84894 -7.44739 -25.2325 2.51306 2.88728e-05 34.6353 0.0731015 10.0957 -22.3917 -4.08445 
282.247 91.3694 -74.9815 5.41883 -5.45512 -168.695 -0.783846 -4.72435 3.81332 -69.2377 22.6417 25.6601 -0.000148345 -0.000346969 -78.5865 -12.9966 15.5786 9.16673 -5.86307 1.75996 11.5372 74.2709 35.088 -1.41469 0.000182875 -0.000371427 76.9472 -2.39768 -21.1302 -0.877106 -9.78215 -5.68854 -9.49929 -1.74481e-07 66.7691 -0.033618 16.7355 -3.92248 4.10674 -12.1294 -27.2431 -4.50394 -1.67623e-06 46.6953 0.105958 13.482 -27.4409 1.51907 
281.582 89.8945 -79.4169 5.62761 -5.3595 -165.151 -0.713807 -4.2766 3.18319 -69.5452 29.6436 16.8495 -0.000142313 -0.00037561 -77.6301 -13.435 20.2312 9.27266 -5.66026 1.17339 10.2673 75.7107 32.8322 -6.14194 0.000129635 -0.000530337 68.9135 -6.62009 -19.4048 0.255217 -11.0032 -10.3415 -9.72638 3.06501e-07 73.803 0.0107638 7.69641 -10.8142 -2.72745 -13.5688 -24.9974 -7.56836 -5.30569e-05 50.1214 0.110624 14.9237 -32.2978 3.13393 
280.65 89.805 -83.6444 6.00064 -5.25457 -162.689 -0.525128 -3.51424 3.17171 -68.5663 36.0361 5.91324 -0.000135279 -0.000406362 -76.5992 -13.6578 20.2001 8.04973 -4.99717 1.09861 9.3771 76.5371 30.4075 -11.9827 9.51643e-05 -0.000590377 63.8301 -7.73693 -19.9594 1.39882 -11.3266 -16.1433 -9.12689 -4.4205e-05 77.706 0.0241318 -3.04861 -16.2172 -7.57318 -13.395 -21.2098 -9.88582 1.595e-05 49.7796 0.0529524 8.18866 -36.2964 -0.0875885 
279.543 91.0684 -87.9932 6.37243 -5.27385 -159.658 -0.557059 -3.41039 2.39374 -67.0878 41.2366 -3.25863 -0.000150652 -0.000335336 -78.974 -14.8608 18.3935 7.81648 -4.10793 1.87746 8.79581 77.5005 27.7148 -19.2143 9.79935e-05 -0.000568856 62.4817 -7.44246 -22.9896 2.30675 -11.3168 -20.7071 -8.81102 -7.56843e-05 76.0723 0.00962589 -6.38271 -20.0613 -7.90829 -12.14 -15.8963 -9.8245 4.82574e-05 45.0448 0.0506723 10.051 -33.938 -1.26443 
278.337 93.2003 -92.5501 7.00415 -5.34359 -157.199 -0.553945 -3.71262 1.41274 -64.6325 45.8449 -11.2867 -0.000166805 -0.000237888 -82.2023 -11.744 14.0364 4.8602 -3.23963 2.72505 8.95609 78.1421 25.5059 -25.8263 0.000115416 -0.000524885 62.7106 -6.22133 -24.0747 3.34185 -9.96552 -24.2454 -7.22525 7.84398e-05 69.9 -0.008253 -6.53255 -22.4015 -6.97161 -9.7169 -10.1741 -8.98169 8.33489e-05 38.5042 0.0245572 7.84532 -29.1954 -5.32148 
277.001 95.6316 -97.1063 7.92849 -5.31079 -154.886 -0.316484 -3.87544 0.509958 -62.2603 48.7629 -17.7617 -8.90093e-05 -0.000212942 -86.132 -10.6727 11.82 4.46568 -2.44195 3.33696 8.86236 78.2062 22.9864 -31.0498 0.000133609 -0.000483548 63.2002 -3.95506 -24.7831 3.70352 -7.7355 -26.2269 -4.90369 -2.29323e-05 59.8046 -0.022841 -6.05067 -24.2139 -6.96506 -6.9504 -5.71683 -7.7056 -3.81329e-05 33.2481 0.00428332 5.32157 -21.5062 -9.65786 
275.363 97.814 -101.943 8.18624 -5.29523 -153.963 -0.0905971 -4.70815 0.306231 -63.2004 49.9291 -19.6677 -0.000198629 -0.000225857 -90.1346 -10.769 8.97663 3.56654 -2.22897 4.8611 9.41621 78.2388 21.9598 -35.8616 0.000149044 -0.000449647 63.4827 -3.18497 -25.1009 3.65563 -5.76052 -26.278 -0.820996 -6.62644e-05 46.7791 -0.0376324 -6.10212 -24.916 -6.21492 -5.39846 -1.38465 -7.05208 0.000135034 28.5264 -0.00472753 2.08214 -12.7765 -11.6372 
273.76 99.1943 -106.658 8.36238 -5.24458 -153.383 0.217705 -5.11453 0.248486 -64.8074 49.9686 -19.8834 -0.00029665 -0.000220577 -93.4969 -10.9088 6.8688 2.10702 -2.27487 5.71255 10.1975 77.6735 21.3498 -38.9505 0.000165587 -0.00041342 63.9611 -1.27528 -24.3035 3.29414 -4.40714 -25.6544 2.19932 -7.03588e-05 33.8003 -0.0424367 -5.45562 -25.5798 -3.70491 -4.25923 1.24015 -6.6395 6.71405e-05 27.0011 -0.00501138 -0.556656 -5.172 -12.3813 
272.454 99.5289 -111.429 8.82054 -5.11921 -152.315 0.323091 -5.22828 0.0773597 -65.2228 49.6473 -19.5962 -0.000164462 -0.000212493 -96.3965 -8.78766 6.18648 0.521728 -1.95128 5.96951 10.1827 77.4356 21.1774 -40.1761 0.00018081 -0.000377731 64.2486 -0.0949666 -23.623 3.1168 -3.06854 -25.3281 2.59331 1.02482e-05 24.2145 -0.0239867 -2.8852 -26.579 -0.283471 -2.71977 0.935287 -5.94726 -0.00028122 31.236 0.00446555 -5.03332 -0.751023 -12.7413 
271.144 98.7525 -116.524 8.92732 -4.24656 -150.743 0.32837 -5.24549 0.0391172 -65.6698 49.5054 -17.99 -0.000195259 -0.000205887 -97.8136 -8.15823 6.10558 0.572718 -1.64475 7.17656 9.63298 77.6622 20.5772 -40.9305 0.000197513 -0.0003348 64.6866 0.992378 -22.1662 2.53688 -1.63849 -24.5808 2.19859 8.27988e-05 20.6499 -0.00278453 -0.705835 -27.8725 -0.994419 -1.168 -0.22638 -5.88284 -6.51832e-05 39.3327 0.0242664 -10.2085 1.4282 -12.8704 
